<svg width="22" height="22" viewBox="0 0 22 22" fill="none" xmlns="http://www.w3.org/2000/svg">
<path d="M10.3587 14.3923L4.85866 8.89232C4.67533 8.70898 4.58366 8.52565 4.58366 8.25065C4.58366 7.97565 4.67533 7.79232 4.85866 7.60898C5.22533 7.24232 5.77533 7.24232 6.14199 7.60898L11.0003 12.4673L15.8587 7.60898C16.2253 7.24232 16.7753 7.24232 17.142 7.60898C17.5087 7.97565 17.5087 8.52565 17.142 8.89232L11.642 14.3923C11.2753 14.759 10.7253 14.759 10.3587 14.3923Z" fill="black"/>
<mask id="mask0_391_30" style="mask-type:luminance" maskUnits="userSpaceOnUse" x="4" y="7" width="14" height="8">
<path d="M10.3587 14.3923L4.85866 8.89232C4.67533 8.70898 4.58366 8.52565 4.58366 8.25065C4.58366 7.97565 4.67533 7.79232 4.85866 7.60898C5.22533 7.24232 5.77533 7.24232 6.14199 7.60898L11.0003 12.4673L15.8587 7.60898C16.2253 7.24232 16.7753 7.24232 17.142 7.60898C17.5087 7.97565 17.5087 8.52565 17.142 8.89232L11.642 14.3923C11.2753 14.759 10.7253 14.759 10.3587 14.3923Z" fill="white"/>
</mask>
<g mask="url(#mask0_391_30)">
<rect x="22" width="22" height="22" transform="rotate(90 22 0)" fill="#6E6B7B"/>
</g>
</svg>
