<svg width="18" height="18" viewBox="0 0 18 18" fill="none" xmlns="http://www.w3.org/2000/svg">
<path d="M11.25 5.625C11.25 3.55393 9.57105 1.875 7.5 1.875C5.42893 1.875 3.75 3.55393 3.75 5.625C3.75 7.69605 5.42893 9.375 7.5 9.375C9.57105 9.375 11.25 7.69605 11.25 5.625Z" stroke="#3666EE" stroke-width="1.125" stroke-linecap="round" stroke-linejoin="round"/>
<path d="M2.25 14.625C2.25 11.7255 4.60051 9.375 7.5 9.375C8.3052 9.375 9.06802 9.55628 9.75 9.8802" stroke="#3666EE" stroke-width="1.125" stroke-linecap="round" stroke-linejoin="round"/>
<path d="M11.6444 11.1981C13.0584 10.7161 13.7654 10.4751 14.1457 10.8553C14.5259 11.2356 14.2849 11.9426 13.8029 13.3566L13.4746 14.3195C13.1044 15.4055 12.9193 15.9484 12.6142 15.9934C12.5322 16.0054 12.4472 15.9982 12.3661 15.9721C12.0642 15.8752 11.9046 15.3027 11.5855 14.1577C11.5147 13.9038 11.4793 13.7768 11.3987 13.6798C11.3753 13.6517 11.3493 13.6257 11.3212 13.6023C11.2242 13.5217 11.0972 13.4863 10.8433 13.4155C9.69828 13.0964 9.12579 12.9368 9.02887 12.6349C9.00282 12.5538 8.99555 12.4688 9.00763 12.3868C9.05256 12.0817 9.59553 11.8966 10.6815 11.5264L11.6444 11.1981Z" stroke="#3666EE"/>
</svg>
