<svg width="22" height="22" viewBox="0 0 22 22" fill="none" xmlns="http://www.w3.org/2000/svg">
<path d="M14.3913 11.6423L8.89134 17.1423C8.70801 17.3256 8.52467 17.4173 8.24967 17.4173C7.97467 17.4173 7.79134 17.3256 7.60801 17.1423C7.24134 16.7756 7.24134 16.2256 7.60801 15.859L12.4663 11.0007L7.60801 6.14232C7.24134 5.77565 7.24134 5.22565 7.60801 4.85898C7.97467 4.49232 8.52467 4.49232 8.89134 4.85898L14.3913 10.359C14.758 10.7257 14.758 11.2757 14.3913 11.6423Z" fill="black"/>
<mask id="mask0_13_5660" style="mask-type:luminance" maskUnits="userSpaceOnUse" x="7" y="4" width="8" height="14">
<path d="M14.3913 11.6423L8.89134 17.1423C8.70801 17.3256 8.52467 17.4173 8.24967 17.4173C7.97467 17.4173 7.79134 17.3256 7.60801 17.1423C7.24134 16.7756 7.24134 16.2256 7.60801 15.859L12.4663 11.0007L7.60801 6.14232C7.24134 5.77565 7.24134 5.22565 7.60801 4.85898C7.97467 4.49232 8.52467 4.49232 8.89134 4.85898L14.3913 10.359C14.758 10.7257 14.758 11.2757 14.3913 11.6423Z" fill="white"/>
</mask>
<g mask="url(#mask0_13_5660)">
<rect width="22" height="22" fill="#6E6B7B"/>
</g>
</svg>
