<svg width="22" height="22" viewBox="0 0 22 22" fill="none" xmlns="http://www.w3.org/2000/svg">
<path d="M10.3587 7.60768L4.85866 13.1077C4.67533 13.291 4.58366 13.4743 4.58366 13.7493C4.58366 14.0243 4.67533 14.2077 4.85866 14.391C5.22533 14.7577 5.77533 14.7577 6.14199 14.391L11.0003 9.53268L15.8587 14.391C16.2253 14.7577 16.7753 14.7577 17.142 14.391C17.5087 14.0243 17.5087 13.4743 17.142 13.1077L11.642 7.60768C11.2753 7.24101 10.7253 7.24101 10.3587 7.60768Z" fill="black"/>
<mask id="mask0_1_1036" style="mask-type:luminance" maskUnits="userSpaceOnUse" x="4" y="7" width="14" height="8">
<path d="M10.3587 7.60768L4.85866 13.1077C4.67533 13.291 4.58366 13.4743 4.58366 13.7493C4.58366 14.0243 4.67533 14.2077 4.85866 14.391C5.22533 14.7577 5.77533 14.7577 6.14199 14.391L11.0003 9.53268L15.8587 14.391C16.2253 14.7577 16.7753 14.7577 17.142 14.391C17.5087 14.0243 17.5087 13.4743 17.142 13.1077L11.642 7.60768C11.2753 7.24101 10.7253 7.24101 10.3587 7.60768Z" fill="white"/>
</mask>
<g mask="url(#mask0_1_1036)">
<rect width="22" height="22" transform="matrix(0 -1 -1 0 22 22)" fill="#6E6B7B"/>
</g>
</svg>
